<svg version="1.1" id="Layer_1" xmlns="http://www.w3.org/2000/svg" xmlns:xlink="http://www.w3.org/1999/xlink" x="0px" y="0px"
	 width="100%" viewBox="0 0 1024 1024" enable-background="new 0 0 1024 1024" xml:space="preserve">
<path fill="#000000" opacity="1.000000" stroke="none" 
	d="
M532.968384,398.000000 
	C532.967957,469.972961 532.967957,541.445923 532.967957,613.569641 
	C539.667297,612.199890 545.305420,609.011047 550.926819,606.077087 
	C583.320923,589.170044 608.384094,564.862366 624.798462,531.990967 
	C626.042969,529.498718 627.188232,527.543823 630.593933,527.573547 
	C647.590271,527.722168 664.588623,527.633118 681.586304,527.658569 
	C682.554810,527.660034 683.523010,527.935120 684.854614,528.138306 
	C683.204712,535.534058 679.926514,542.081116 676.757385,548.604553 
	C647.874817,608.056458 601.883179,647.944153 539.044006,668.291870 
	C534.233398,669.849609 532.748108,671.877014 532.809753,676.956787 
	C533.140991,704.282532 533.021423,731.613708 533.045715,758.943054 
	C533.052734,766.797302 533.748901,767.573120 541.535522,767.575134 
	C599.861023,767.590454 658.186584,767.595764 716.512085,767.575073 
	C726.343811,767.571594 726.335876,767.506836 726.329651,777.589417 
	C726.321106,791.420898 726.239746,805.253296 726.385620,819.083252 
	C726.422302,822.557190 725.383423,823.546326 721.807129,823.538086 
	C665.315063,823.407166 608.822632,823.439880 552.330322,823.432800 
	C529.177185,823.429871 506.022766,823.290222 482.872131,823.526001 
	C478.221130,823.573364 476.970764,822.208801 476.984741,817.659363 
	C477.118683,773.999390 477.035614,730.338806 477.036621,686.678406 
	C477.036774,679.595886 477.093689,679.435242 470.054626,679.114685 
	C432.454865,677.402527 396.794891,668.552673 363.589203,650.504761 
	C315.525909,624.381653 281.925842,585.511353 261.806671,534.835999 
	C253.039780,512.754333 248.336945,489.813232 246.471649,466.074799 
	C242.269135,412.591797 255.535614,363.885773 285.051849,319.414368 
	C320.338409,266.248932 370.050568,233.836777 432.535675,224.245789 
	C519.760864,210.857407 593.409424,237.724945 650.504761,306.271332 
	C664.579102,323.168365 674.513123,342.636475 683.607727,362.533020 
	C684.021606,363.438507 684.515991,364.331818 684.087708,365.529510 
	C682.671509,366.999054 680.731873,366.338287 679.007751,366.344604 
	C663.176697,366.402496 647.343689,366.256958 631.515381,366.473541 
	C627.669312,366.526184 625.612549,365.240417 623.697815,361.918610 
	C598.333069,317.914032 561.089539,289.491119 511.509644,278.023468 
	C418.617096,256.537750 323.022614,312.443634 302.803741,410.260101 
	C290.689331,468.868286 303.530762,522.543823 343.801361,567.902588 
	C369.928650,597.331116 403.137024,615.246582 441.883057,622.591980 
	C451.350281,624.386780 460.929932,625.456421 470.577393,625.610474 
	C476.692627,625.708130 477.033966,625.290955 477.030914,619.096558 
	C477.011780,580.601868 476.949646,542.107239 476.951599,503.612549 
	C476.954529,445.287231 476.995300,386.961914 477.028320,328.636597 
	C477.032227,321.713165 477.055542,321.652588 484.023621,321.559753 
	C498.168884,321.371338 512.318787,321.396851 526.458923,321.031952 
	C531.348206,320.905762 533.147278,322.344238 533.090454,327.520569 
	C532.834412,350.844666 532.972656,374.173126 532.968384,398.000000 
z"/>
</svg>